<?xml version="1.0" standalone="no"?>
<!DOCTYPE svg PUBLIC "-//W3C//DTD SVG 20010904//EN"
 "http://www.w3.org/TR/2001/REC-SVG-20010904/DTD/svg10.dtd">
<svg version="1.0" xmlns="http://www.w3.org/2000/svg"
 width="700.000000pt" height="700.000000pt" viewBox="0 0 700.000000 700.000000"
 preserveAspectRatio="xMidYMid meet">
<metadata>
Created by potrace 1.11, written by Peter Selinger 2001-2013
</metadata>
<g transform="translate(0.000000,700.000000) scale(0.100000,-0.100000)"
fill="#000000" stroke="none">
<path d="M2356 6863 c-2 -2 -18 -6 -37 -8 -19 -3 -45 -7 -59 -10 -14 -3 -43
-8 -65 -11 -54 -8 -74 -11 -115 -19 -19 -3 -48 -8 -65 -11 -16 -3 -37 -7 -45
-9 -8 -2 -33 -7 -55 -10 -23 -3 -50 -7 -62 -9 -12 -3 -43 -8 -70 -12 -26 -3
-57 -8 -68 -10 -25 -5 -83 -15 -110 -19 -56 -8 -101 -17 -105 -22 -3 -2 -5
-443 -5 -978 l0 -974 22 14 c12 8 35 27 51 43 15 15 47 42 69 60 23 18 54 45
70 60 16 15 50 45 77 67 26 22 62 54 81 70 18 17 54 48 79 69 26 21 60 51 75
65 32 29 59 52 151 131 57 49 109 94 144 125 6 6 27 24 46 40 l35 30 0 665 c0
635 -1 666 -18 666 -10 0 -19 -2 -21 -3z"/>
<path d="M5248 6385 c-2 -2 -158 -6 -348 -8 -190 -3 -346 -5 -346 -6 -1 -1
-15 -13 -31 -28 -17 -16 -53 -48 -82 -73 -29 -25 -67 -58 -85 -75 -18 -16 -61
-55 -96 -85 -35 -30 -73 -64 -86 -75 -21 -19 -113 -100 -158 -138 -50 -43
-124 -108 -156 -137 -19 -18 -52 -46 -74 -63 -21 -18 -50 -43 -65 -57 -16 -14
-50 -44 -78 -67 -27 -24 -61 -53 -75 -65 -13 -13 -44 -39 -67 -58 -23 -19 -56
-47 -72 -62 -17 -15 -48 -42 -71 -60 -22 -18 -53 -44 -68 -58 -24 -21 -65 -57
-150 -130 -10 -8 -42 -35 -71 -60 -143 -121 -237 -202 -268 -228 -57 -50 -79
-69 -131 -112 -30 -25 -62 -52 -71 -60 -20 -18 -95 -83 -204 -175 -25 -21 -57
-48 -70 -60 -13 -11 -34 -29 -47 -40 -65 -54 -134 -112 -154 -130 -12 -11 -44
-39 -71 -61 -26 -23 -59 -52 -73 -63 -14 -12 -45 -38 -69 -59 -24 -20 -56 -48
-70 -60 -14 -13 -48 -43 -75 -65 -27 -23 -59 -51 -71 -62 -13 -11 -46 -40 -75
-65 -130 -111 -122 -100 -134 -190 -3 -19 -7 -57 -11 -85 -3 -27 -8 -66 -11
-85 -3 -19 -7 -53 -9 -75 -3 -22 -7 -49 -9 -60 -2 -11 -7 -49 -11 -85 -4 -36
-9 -73 -10 -82 -2 -9 -6 -44 -10 -77 -3 -33 -8 -69 -10 -81 -2 -12 -7 -48 -10
-79 -4 -31 -8 -67 -10 -81 -2 -14 -7 -47 -10 -75 -4 -27 -9 -63 -11 -80 -3
-16 -7 -50 -10 -75 -3 -25 -7 -56 -9 -70 -2 -14 -7 -50 -10 -80 -3 -30 -8 -68
-11 -85 -3 -16 -7 -46 -9 -65 -2 -19 -7 -57 -10 -85 -4 -27 -8 -65 -10 -84 -3
-19 -6 -48 -9 -65 -3 -17 -8 -53 -11 -81 -4 -27 -8 -62 -11 -76 -2 -14 -6 -51
-9 -81 -3 -30 -7 -65 -10 -77 -2 -13 -7 -49 -10 -80 -4 -31 -8 -67 -10 -80 -3
-14 -7 -51 -10 -84 -4 -32 -8 -68 -11 -80 -4 -21 -9 -53 -18 -134 -3 -21 -7
-58 -11 -83 -3 -25 -8 -62 -10 -82 -3 -21 -8 -57 -11 -80 -3 -24 -7 -54 -9
-68 -15 -132 -19 -160 -29 -225 -3 -22 -8 -60 -11 -85 -5 -43 -13 -105 -20
-160 -2 -14 -6 -45 -9 -70 -3 -25 -8 -61 -11 -80 -2 -19 -7 -59 -10 -88 l-6
-52 673 2 673 3 -1 235 c-1 129 -4 461 -7 737 -6 496 -6 502 14 490 10 -6 19
-14 19 -17 0 -3 16 -14 35 -24 19 -11 35 -23 35 -28 0 -4 5 -8 11 -8 6 0 17
-6 24 -13 30 -26 44 -37 49 -37 5 0 78 -53 119 -86 9 -8 20 -14 23 -14 3 0 12
-6 19 -13 29 -25 44 -37 49 -37 3 0 34 -21 69 -47 36 -27 75 -55 87 -63 12 -8
28 -21 36 -28 7 -6 17 -12 23 -12 6 0 11 -4 11 -8 0 -5 16 -17 35 -28 19 -10
35 -22 35 -26 0 -3 8 -9 18 -12 9 -3 33 -19 52 -36 19 -16 38 -30 41 -30 5 0
22 -13 66 -50 7 -5 15 -10 19 -10 3 0 20 -11 38 -25 41 -33 46 -37 81 -59 16
-11 35 -24 43 -30 7 -6 18 -15 25 -21 7 -5 32 -23 57 -40 43 -29 50 -34 84
-62 8 -7 19 -13 25 -13 5 0 11 -3 13 -7 1 -5 17 -17 33 -29 17 -11 62 -43 100
-69 39 -27 76 -55 83 -62 8 -7 23 -18 34 -24 17 -9 82 -55 123 -87 6 -4 33
-23 60 -42 28 -19 52 -37 53 -42 2 -4 8 -8 13 -8 8 0 71 -45 122 -86 9 -8 20
-14 23 -14 3 0 19 -10 34 -22 15 -13 37 -30 50 -38 12 -8 33 -23 47 -34 23
-17 61 -18 773 -22 413 -2 750 -1 750 3 0 5 -12 17 -27 28 -15 11 -37 29 -49
40 -12 11 -44 39 -71 61 -26 23 -57 50 -69 60 -12 11 -45 39 -74 64 -29 25
-63 54 -75 65 -13 11 -44 38 -70 60 -26 22 -58 49 -70 60 -22 19 -85 73 -131
112 -12 10 -49 43 -84 73 -34 30 -76 66 -93 80 -17 14 -38 32 -47 40 -9 8 -43
37 -75 65 -33 27 -69 58 -81 70 -11 11 -40 36 -63 55 -47 38 -110 92 -150 129
-14 12 -46 39 -70 60 -24 20 -53 44 -65 54 -11 11 -45 40 -75 65 -30 26 -64
56 -77 67 -12 11 -44 38 -70 60 -26 22 -57 49 -70 60 -12 11 -43 38 -70 60
-26 22 -58 49 -70 60 -12 11 -43 38 -70 60 -26 22 -59 51 -74 65 -15 14 -39
34 -52 45 -14 11 -49 40 -78 65 -28 25 -60 52 -70 60 -9 8 -45 40 -80 70 -88
77 -92 80 -145 125 -26 22 -57 49 -69 60 -12 11 -44 38 -70 60 -27 22 -61 51
-76 65 -16 14 -49 43 -76 65 -26 22 -57 49 -69 60 -13 11 -44 38 -69 59 -26
21 -60 51 -75 65 -16 14 -48 42 -71 61 -24 19 -53 44 -65 55 -12 11 -44 38
-71 60 -26 22 -58 49 -70 60 -12 11 -48 43 -80 70 -32 28 -68 59 -80 70 -12
11 -40 35 -63 53 -22 18 -53 45 -70 60 -16 15 -45 40 -65 56 -20 16 -36 35
-36 42 0 12 52 71 190 214 30 32 111 117 180 190 69 73 148 156 175 185 28 28
109 114 180 190 72 75 155 163 185 195 30 31 111 117 180 190 69 73 152 161
185 195 33 34 116 122 185 195 69 73 150 159 180 190 30 31 111 117 180 190
69 73 150 159 180 190 30 31 111 117 180 190 69 73 150 159 180 190 30 32 111
117 180 190 69 73 152 161 185 195 85 88 165 175 162 176 -13 4 -36 6 -39 4z"/>
</g>
</svg>
